<svg width="44" height="45" viewBox="0 0 44 45" fill="none" xmlns="http://www.w3.org/2000/svg">
<g id="Tablist &#226;&#134;&#146; Tab &#226;&#134;&#146; SVG" clip-path="url(#clip0_5_39)">
<path id="Vector" d="M21.1785 26.3335C21.0653 26.1009 20.8888 25.905 20.6693 25.7682C20.4498 25.6313 20.1962 25.5592 19.9375 25.5601H3.32751C2.96284 25.5601 2.61311 25.7049 2.35524 25.9628C2.09738 26.2207 1.95251 26.5704 1.95251 26.9351C1.95251 36.7904 10.0203 44.8101 19.941 44.8101C22.6447 44.815 25.3147 44.2105 27.7527 43.0415C27.9164 42.9635 28.0631 42.8539 28.1842 42.719C28.3054 42.5842 28.3987 42.4266 28.4588 42.2555C28.5189 42.0845 28.5445 41.9032 28.5342 41.7221C28.524 41.5411 28.478 41.3639 28.3989 41.2007L21.1785 26.3335Z" fill="#A07CC5"/>
<path id="Vector_2" d="M26.125 4.07568C25.7603 4.07568 25.4106 4.22055 25.1527 4.47841C24.8949 4.73627 24.75 5.08601 24.75 5.45068V21.8458C24.7495 22.0537 24.7965 22.2588 24.8875 22.4457L32.0598 37.2183C32.2183 37.5454 32.4998 37.7965 32.8428 37.9166C33.1858 38.0367 33.5624 38.0162 33.8903 37.8594C40.1277 34.8551 44 28.7174 44 21.8424C44 12.0438 35.9803 4.07568 26.125 4.07568Z" fill="#D9CBE8"/>
<path id="Vector_3" d="M19.25 18.6851V2.18506C19.25 1.82039 19.1051 1.47065 18.8473 1.21279C18.5894 0.954924 18.2397 0.810059 17.875 0.810059C13.1361 0.815971 8.59293 2.70112 5.242 6.05206C1.89106 9.40299 0.00591258 13.9461 0 18.6851C0 19.0497 0.144866 19.3995 0.402728 19.6573C0.660591 19.9152 1.01033 20.0601 1.375 20.0601H17.875C18.2397 20.0601 18.5894 19.9152 18.8473 19.6573C19.1051 19.3995 19.25 19.0497 19.25 18.6851Z" fill="#A07CC5"/>
</g>
<defs>
<clipPath id="clip0_5_39">
<rect width="44" height="44" fill="white" transform="translate(0 0.810059)"/>
</clipPath>
</defs>
</svg>
