<svg width="45" height="45" viewBox="0 0 45 45" fill="none" xmlns="http://www.w3.org/2000/svg">
<g id="SVG" clip-path="url(#clip0_5_82)">
<path id="Vector" d="M22.7517 10.1478C25.2833 10.1478 27.3356 8.09551 27.3356 5.56389C27.3356 3.03227 25.2833 0.97998 22.7517 0.97998C20.2201 0.97998 18.1678 3.03227 18.1678 5.56389C18.1678 8.09551 20.2201 10.1478 22.7517 10.1478Z" fill="#A07CC5"/>
<path id="Vector_2" d="M35.5856 35.8138C38.1172 35.8138 40.1695 33.7615 40.1695 31.2299C40.1695 28.6983 38.1172 26.646 35.5856 26.646C33.054 26.646 31.0017 28.6983 31.0017 31.2299C31.0017 33.7615 33.054 35.8138 35.5856 35.8138Z" fill="#A07CC5"/>
<path id="Vector_3" d="M9.9178 35.8138C12.4494 35.8138 14.5017 33.7615 14.5017 31.2299C14.5017 28.6983 12.4494 26.646 9.9178 26.646C7.38618 26.646 5.33389 28.6983 5.33389 31.2299C5.33389 33.7615 7.38618 35.8138 9.9178 35.8138Z" fill="#A07CC5"/>
<path id="Vector_4" d="M30.5428 19.3139H14.9589C14.5942 19.3139 14.2445 19.169 13.9866 18.9112C13.7288 18.6533 13.5839 18.3036 13.5839 17.9389V17.0228C13.5844 15.6855 14.1158 14.4031 15.0614 13.4575C16.007 12.5119 17.2894 11.9804 18.6267 11.98H26.8767C28.2131 11.9809 29.4945 12.5121 30.4397 13.4569C31.3848 14.4017 31.9164 15.683 31.9178 17.0194V17.9354C31.9183 18.1163 31.883 18.2955 31.8141 18.4627C31.7452 18.6299 31.644 18.7819 31.5163 18.9099C31.3886 19.038 31.2368 19.1396 31.0698 19.2089C30.9027 19.2782 30.7237 19.3139 30.5428 19.3139ZM43.3767 44.98H27.7928C27.4281 44.98 27.0784 44.8351 26.8205 44.5773C26.5627 44.3194 26.4178 43.9697 26.4178 43.605V42.6889C26.4192 41.3523 26.9507 40.0709 27.8958 39.1258C28.8409 38.1807 30.1223 37.6492 31.4589 37.6478H39.7089C41.0458 37.6487 42.3276 38.1801 43.2731 39.1252C44.2186 40.0703 44.7503 41.352 44.7517 42.6889V43.605C44.7517 43.9697 44.6068 44.3194 44.349 44.5773C44.0911 44.8351 43.7414 44.98 43.3767 44.98ZM17.7106 44.98H2.12671C1.76204 44.98 1.4123 44.8351 1.15444 44.5773C0.896575 44.3194 0.751709 43.9697 0.751709 43.605V42.6889C0.753074 41.3523 1.28463 40.0709 2.22972 39.1258C3.17481 38.1807 4.45624 37.6492 5.7928 37.6478H14.0428C15.3792 37.6496 16.6604 38.1813 17.6054 39.1263C18.5504 40.0713 19.0821 41.3525 19.0839 42.6889V43.605C19.0839 43.9697 18.939 44.3194 18.6812 44.5773C18.4233 44.8351 18.0736 44.98 17.7089 44.98H17.7106Z" fill="#A07CC5"/>
<path id="Vector_5" d="M5.79282 24.3772C5.42814 24.3772 5.07841 24.2324 4.82054 23.9745C4.56268 23.7166 4.41782 23.3669 4.41782 23.0022C4.42582 19.5088 5.42772 16.0899 7.30646 13.1447C9.1852 10.1995 11.8632 7.84974 15.0277 6.36987C15.1921 6.28843 15.3712 6.24073 15.5544 6.22959C15.7376 6.21845 15.9212 6.24409 16.0943 6.305C16.2674 6.36592 16.4266 6.46087 16.5624 6.58427C16.6983 6.70767 16.808 6.85702 16.8852 7.0235C16.9625 7.18999 17.0056 7.37025 17.012 7.55366C17.0185 7.73707 16.9882 7.91992 16.9228 8.09142C16.8575 8.26293 16.7585 8.41963 16.6317 8.55227C16.5049 8.68492 16.3528 8.79084 16.1844 8.86378C13.4937 10.1209 11.2165 12.1181 9.61922 14.6219C8.0219 17.1256 7.17043 20.0324 7.16438 23.0022C7.16438 23.3663 7.01999 23.7155 6.76287 23.9733C6.50575 24.231 6.15689 24.3763 5.79282 24.3772ZM39.7106 24.3772C39.346 24.3772 38.9962 24.2324 38.7384 23.9745C38.4805 23.7166 38.3356 23.3669 38.3356 23.0022C38.3296 20.0324 37.4781 17.1256 35.8808 14.6219C34.2835 12.1181 32.0063 10.1209 29.3156 8.86378C29.1498 8.78902 29.0005 8.68212 28.8763 8.54925C28.7521 8.41639 28.6555 8.26021 28.5921 8.08976C28.5287 7.9193 28.4998 7.73796 28.5069 7.55624C28.5141 7.37451 28.5572 7.19601 28.6338 7.03107C28.7104 6.86612 28.819 6.71802 28.9533 6.59533C29.0875 6.47264 29.2448 6.3778 29.4159 6.31631C29.5871 6.25481 29.7687 6.22788 29.9504 6.23708C30.132 6.24627 30.31 6.29141 30.4741 6.36987C33.6386 7.84957 36.3168 10.1993 38.1955 13.1445C40.0743 16.0897 41.0761 19.5088 41.0839 23.0022C41.0839 23.3669 40.939 23.7166 40.6812 23.9745C40.4233 24.2324 40.0736 24.3772 39.7089 24.3772H39.7106ZM22.7517 41.3361C22.1116 41.3369 21.4719 41.3036 20.8353 41.2364C20.4842 41.1851 20.1665 41 19.9487 40.7198C19.7309 40.4396 19.6299 40.0861 19.6667 39.7331C19.7036 39.3802 19.8755 39.0552 20.1464 38.826C20.4174 38.5969 20.7665 38.4813 21.1206 38.5036C22.2408 38.6179 23.3699 38.6145 24.4894 38.4933C24.848 38.4605 25.2052 38.5697 25.4842 38.7975C25.7632 39.0252 25.9417 39.3534 25.9813 39.7113C26.0209 40.0693 25.9185 40.4285 25.6961 40.7118C25.4737 40.995 25.149 41.1797 24.7919 41.2261C24.1143 41.2993 23.4333 41.336 22.7517 41.3361Z" fill="#D9CBE8"/>
</g>
<defs>
<clipPath id="clip0_5_82">
<rect width="44" height="44" fill="white" transform="translate(0.75 0.97998)"/>
</clipPath>
</defs>
</svg>
