<svg width="20" height="21" viewBox="0 0 20 21" fill="none" xmlns="http://www.w3.org/2000/svg">
<g id="Nav &#226;&#134;&#146; Link">
<path id="Vector" d="M8.33984 2.21973C7.19401 2.21973 6.11328 2.44108 5.09766 2.88379C4.08203 3.31348 3.19661 3.90592 2.44141 4.66113C1.6862 5.41634 1.09375 6.30176 0.664062 7.31738C0.221354 8.33301 0 9.41374 0 10.5596C0 11.7054 0.221354 12.7861 0.664062 13.8018C1.09375 14.8174 1.6862 15.7028 2.44141 16.458C3.19661 17.2132 4.08203 17.8057 5.09766 18.2354C6.11328 18.6781 7.19401 18.8994 8.33984 18.8994C9.48568 18.8994 10.5664 18.6781 11.582 18.2354C12.5977 17.8057 13.4831 17.2132 14.2383 16.458C14.9935 15.7028 15.5859 14.8174 16.0156 13.8018C16.4583 12.7861 16.6797 11.7054 16.6797 10.5596C16.6797 9.41374 16.4583 8.33301 16.0156 7.31738C15.5859 6.30176 14.9935 5.41634 14.2383 4.66113C13.4831 3.90592 12.5977 3.31348 11.582 2.88379C10.5664 2.44108 9.48568 2.21973 8.33984 2.21973ZM8.33984 3.89941C9.23828 3.89941 10.0814 4.06217 10.8691 4.3877C11.6569 4.71322 12.3438 5.16243 12.9297 5.73535C12.3568 6.08691 11.7415 6.41243 11.084 6.71191C10.4264 7.01139 9.7526 7.27832 9.0625 7.5127L8.90625 7.55176C8.52865 6.91374 8.14128 6.31152 7.74414 5.74512C7.34701 5.17871 6.92708 4.63509 6.48438 4.11426L6.52344 4.15332C6.79688 4.0752 7.08659 4.01335 7.39258 3.96777C7.69857 3.9222 8.01432 3.89941 8.33984 3.89941ZM4.92188 4.85645C5.33854 5.3252 5.73893 5.81999 6.12305 6.34082C6.50716 6.86165 6.86849 7.40202 7.20703 7.96191L7.26562 8.05957C6.51042 8.25488 5.70964 8.40462 4.86328 8.50879C4.01693 8.61296 3.15104 8.67155 2.26562 8.68457H1.95312C2.20052 7.86426 2.57812 7.12858 3.08594 6.47754C3.59375 5.8265 4.19271 5.29264 4.88281 4.87598L4.92188 4.85645ZM3.33984 14.9932C2.81901 14.4072 2.41211 13.7399 2.11914 12.9912C1.82617 12.2425 1.67969 11.445 1.67969 10.5986C1.67969 10.5986 1.67969 10.5954 1.67969 10.5889C1.67969 10.5824 1.67969 10.5726 1.67969 10.5596C1.67969 10.5205 1.67969 10.4814 1.67969 10.4424C1.67969 10.4033 1.67969 10.3643 1.67969 10.3252H2.24609C3.28776 10.3122 4.30664 10.2308 5.30273 10.0811C6.29883 9.93132 7.27214 9.71973 8.22266 9.44629L8.06641 9.48535C8.20964 9.73275 8.3431 9.98991 8.4668 10.2568C8.5905 10.5238 8.71094 10.7939 8.82812 11.0674C8.15104 11.3018 7.51302 11.5915 6.91406 11.9365C6.3151 12.2816 5.75521 12.6624 5.23438 13.0791L5.25391 13.0596L5 13.2744C4.70052 13.5348 4.41406 13.805 4.14062 14.085C3.86719 14.3649 3.60677 14.6546 3.35938 14.9541L3.33984 14.9932ZM8.33984 17.2197C8.33984 17.2197 8.33659 17.2197 8.33008 17.2197C8.32357 17.2197 8.32031 17.2197 8.32031 17.2197C7.63021 17.2197 6.9694 17.1188 6.33789 16.917C5.70638 16.7152 5.1237 16.432 4.58984 16.0674L4.60938 16.0869C4.81771 15.8525 5.0293 15.6279 5.24414 15.4131C5.45898 15.1982 5.67708 14.9867 5.89844 14.7783L5.91797 14.7588L6.17188 14.5439C6.65365 14.1403 7.16797 13.7822 7.71484 13.4697C8.26172 13.1572 8.83464 12.8903 9.43359 12.6689L9.51172 12.6494C9.73307 13.2354 9.94141 13.8669 10.1367 14.5439C10.332 15.221 10.5013 15.9242 10.6445 16.6533L10.6836 16.8096C10.3451 16.9398 9.97721 17.0407 9.58008 17.1123C9.18294 17.1839 8.78255 17.2197 8.37891 17.2197C8.36589 17.2197 8.35612 17.2197 8.34961 17.2197C8.3431 17.2197 8.33984 17.2197 8.33984 17.2197ZM12.207 15.9893C12.0378 15.2471 11.862 14.557 11.6797 13.9189C11.4974 13.2809 11.2956 12.6624 11.0742 12.0635L11.1328 12.2588H11.4062C11.4193 12.2588 11.429 12.2588 11.4355 12.2588C11.4421 12.2588 11.4518 12.2588 11.4648 12.2588C11.4779 12.2588 11.4876 12.2588 11.4941 12.2588C11.5007 12.2588 11.5104 12.2588 11.5234 12.2588H12.0898C12.5456 12.2718 12.9948 12.3174 13.4375 12.3955C13.8802 12.4736 14.3099 12.5843 14.7266 12.7275L14.668 12.708C14.4336 13.3851 14.1048 14.0003 13.6816 14.5537C13.2585 15.1071 12.7734 15.5791 12.2266 15.9697L12.207 15.9893ZM12.0898 10.5596C11.9987 10.5596 11.9108 10.5596 11.8262 10.5596C11.7415 10.5596 11.6602 10.5596 11.582 10.5596C11.556 10.5596 11.5267 10.5563 11.4941 10.5498C11.4616 10.5433 11.4323 10.54 11.4062 10.54C11.3802 10.54 11.3542 10.5433 11.3281 10.5498C11.3021 10.5563 11.276 10.5596 11.25 10.5596C11.1198 10.5726 10.9961 10.5856 10.8789 10.5986C10.7617 10.6117 10.651 10.6312 10.5469 10.6572L10.5664 10.6377H10.4883C10.3711 10.3643 10.2474 10.0908 10.1172 9.81738C9.98698 9.54395 9.85677 9.264 9.72656 8.97754C10.5469 8.69108 11.3151 8.37858 12.0312 8.04004C12.7474 7.7015 13.4375 7.3304 14.1016 6.92676L14.0039 6.98535C14.3164 7.48014 14.5605 8.02702 14.7363 8.62598C14.9121 9.22493 15 9.84993 15 10.501C15 10.514 15 10.5238 15 10.5303C15 10.5368 15 10.5465 15 10.5596C15 10.6247 15 10.693 15 10.7646C15 10.8363 15 10.9111 15 10.9893C14.5833 10.846 14.1374 10.7386 13.6621 10.667C13.1868 10.5954 12.6953 10.5596 12.1875 10.5596C12.1745 10.5596 12.1582 10.5596 12.1387 10.5596C12.1191 10.5596 12.1029 10.5596 12.0898 10.5596Z" fill="white"/>
</g>
</svg>
