<svg width="19" height="19" viewBox="0 0 19 19" fill="none" xmlns="http://www.w3.org/2000/svg">
<g id="Icon" clip-path="url(#clip0_5_79)">
<path id="Vector" d="M9.36726 9.2688C9.34383 9.22192 9.31746 9.17798 9.28816 9.13696C9.25887 9.09595 9.2325 9.05786 9.20906 9.02271L5.44734 5.26099C5.37703 5.20239 5.29793 5.15259 5.21004 5.11157C5.12215 5.07056 5.02547 5.05005 4.92 5.05005C4.70906 5.05005 4.53035 5.12329 4.38387 5.26978C4.23738 5.41626 4.16414 5.59497 4.16414 5.80591C4.16414 5.91138 4.18465 6.00806 4.22566 6.09595C4.26668 6.18384 4.32234 6.26294 4.39265 6.33325L6.87117 8.79419H1.17586C0.96492 8.79419 0.786209 8.86743 0.639725 9.01392C0.49324 9.1604 0.419998 9.33911 0.419998 9.55005C0.419998 9.76099 0.49324 9.9397 0.639725 10.0862C0.786209 10.2327 0.96492 10.3059 1.17586 10.3059H6.87117L4.39265 12.7668C4.32234 12.8372 4.26668 12.9163 4.22566 13.0042C4.18465 13.092 4.16414 13.1887 4.16414 13.2942C4.16414 13.3997 4.18465 13.4993 4.22566 13.593C4.26668 13.6868 4.32234 13.7688 4.39265 13.8391C4.46297 13.8977 4.54207 13.9475 4.62996 13.9885C4.71785 14.0295 4.81453 14.05 4.92 14.05C5.02547 14.05 5.12215 14.0295 5.21004 13.9885C5.29793 13.9475 5.37703 13.8977 5.44734 13.8391L9.20906 10.0774C9.2325 10.0422 9.25887 10.0042 9.28816 9.96313C9.31746 9.92212 9.33797 9.88403 9.34969 9.84888L9.36726 9.8313C9.37898 9.79614 9.3907 9.7522 9.40242 9.69946C9.41414 9.64673 9.42 9.59692 9.42 9.55005C9.42 9.50317 9.41414 9.45337 9.40242 9.40063C9.3907 9.3479 9.37312 9.30396 9.34969 9.2688H9.36726Z" fill="#F4841F"/>
</g>
<defs>
<clipPath id="clip0_5_79">
<rect width="18" height="18" fill="white" transform="matrix(1 0 0 -1 0.419998 18.55)"/>
</clipPath>
</defs>
</svg>
