<svg width="12" height="10" viewBox="0 0 12 10" fill="none" xmlns="http://www.w3.org/2000/svg">
<path id="Vector" d="M11.5859 0.96167C11.5078 0.883545 11.4199 0.821696 11.3223 0.776123C11.2246 0.73055 11.1172 0.707764 11 0.707764C10.8828 0.707764 10.7754 0.73055 10.6777 0.776123C10.5801 0.821696 10.4922 0.883545 10.4141 0.96167L4.20312 7.17261L1.58594 4.55542C1.50781 4.47729 1.41992 4.4187 1.32227 4.37964C1.22461 4.34058 1.11719 4.32104 1 4.32104C0.765625 4.32104 0.563802 4.40243 0.394531 4.56519C0.22526 4.72795 0.140625 4.92651 0.140625 5.16089C0.140625 5.2911 0.166667 5.40828 0.21875 5.51245C0.270833 5.61662 0.335938 5.70776 0.414062 5.78589L3.61719 8.98901C3.68229 9.05412 3.76693 9.10946 3.87109 9.15503C3.97526 9.2006 4.08594 9.22339 4.20312 9.22339C4.32031 9.22339 4.42773 9.2006 4.52539 9.15503C4.62305 9.10946 4.71094 9.05412 4.78906 8.98901L11.5859 2.17261C11.6771 2.09448 11.7454 2.00334 11.791 1.89917C11.8366 1.795 11.8594 1.68433 11.8594 1.56714C11.8594 1.44995 11.8366 1.33602 11.791 1.22534C11.7454 1.11467 11.6771 1.02677 11.5859 0.96167Z" fill="#38C9D6"/>
</svg>
